<svg width="60" height="80" viewBox="0 0 60 80" fill="none" xmlns="http://www.w3.org/2000/svg">
<g clip-path="url(#clip0_205_2)">
<path d="M33.5313 6.46875C31.5781 4.51562 28.4062 4.51562 26.4531 6.46875L1.45312 31.4688C-0.5 33.4219 -0.5 36.5937 1.45312 38.5469C3.40625 40.5 6.57812 40.5 8.53125 38.5469L25 22.0625V70C25 72.7656 27.2344 75 30 75C32.7656 75 35 72.7656 35 70V22.0625L51.4688 38.5313C53.4219 40.4844 56.5938 40.4844 58.5469 38.5313C60.5 36.5781 60.5 33.4062 58.5469 31.4531L33.5469 6.45312L33.5313 6.46875Z" fill="#EAEFF9"/>
</g>
<defs>
<clipPath id="clip0_205_2">
<rect width="60" height="80" fill="white"/>
</clipPath>
</defs>
</svg>
