<svg width="60" height="60" viewBox="0 0 60 60" fill="none" xmlns="http://www.w3.org/2000/svg">
<path d="M5.625 7.5C2.51953 7.5 0 10.0195 0 13.125C0 14.8945 0.832031 16.5586 2.25 17.625L27.75 36.75C29.0859 37.7461 30.9141 37.7461 32.25 36.75L57.75 17.625C59.168 16.5586 60 14.8945 60 13.125C60 10.0195 57.4805 7.5 54.375 7.5H5.625ZM0 20.625V45C0 49.1367 3.36328 52.5 7.5 52.5H52.5C56.6367 52.5 60 49.1367 60 45V20.625L34.5 39.75C31.8281 41.7539 28.1719 41.7539 25.5 39.75L0 20.625Z" fill="#DFA974"/>
</svg>
