<svg width="42" height="42" viewBox="0 0 42 42" fill="none" xmlns="http://www.w3.org/2000/svg">
<path d="M32 41H10C5.029 41 1 36.971 1 32V10C1 5.029 5.029 1 10 1H32C36.971 1 41 5.029 41 10V32C41 36.971 36.971 41 32 41Z" fill="#1D3564" stroke="white" stroke-width="2" stroke-miterlimit="10"/>
<path d="M33 30H9C7.895 30 7 29.105 7 28V14C7 12.895 7.895 12 9 12H33C34.105 12 35 12.895 35 14V28C35 29.105 34.105 30 33 30Z" fill="#1D3564" stroke="white" stroke-width="2" stroke-miterlimit="10"/>
<path d="M34 13L24.384 22.601C22.509 24.473 19.472 24.472 17.598 22.598L8 13" fill="#1D3564"/>
<path d="M34 13L24.384 22.601C22.509 24.473 19.472 24.472 17.598 22.598L8 13" stroke="white" stroke-width="2" stroke-miterlimit="10"/>
<path d="M16 21L8 29" stroke="white" stroke-width="2" stroke-miterlimit="10"/>
<path d="M34 29L25.988 21" stroke="white" stroke-width="2" stroke-miterlimit="10"/>
</svg>
