<svg width="60" height="69" viewBox="0 0 60 69" fill="none" xmlns="http://www.w3.org/2000/svg">
<g clip-path="url(#clip0_203_4)">
<path d="M30 27.142C28.5872 27.1425 27.2063 27.5619 26.0319 28.3472C24.8574 29.1325 23.9422 30.2484 23.4019 31.5538C22.8617 32.8592 22.7206 34.2955 22.9965 35.681C23.2725 37.0666 23.9531 38.3393 24.9522 39.3381C25.9514 40.3369 27.2243 41.017 28.61 41.2924C29.9957 41.5678 31.4319 41.4262 32.7371 40.8854C34.0423 40.3447 35.1578 39.429 35.9427 38.2543C36.7275 37.0796 37.1464 35.6985 37.1464 34.2857C37.145 32.391 36.3915 30.5744 35.0516 29.2349C33.7116 27.8955 31.8947 27.1427 30 27.142V27.142ZM46.7022 21.6509C46.3386 20.7293 45.7894 19.8922 45.0888 19.1916C44.3882 18.491 43.5511 17.9418 42.6295 17.5781C39.817 16.4679 33.1205 16.717 30 16.717C26.8795 16.717 20.1897 16.4585 17.3692 17.5781C16.4476 17.9418 15.6105 18.491 14.9099 19.1916C14.2093 19.8922 13.6601 20.7293 13.2964 21.6509C12.1875 24.4634 12.4353 31.1665 12.4353 34.2844C12.4353 37.4022 12.1875 44.0973 13.3018 46.9192C13.6655 47.8408 14.2146 48.6779 14.9152 49.3785C15.6158 50.0791 16.4529 50.6283 17.3746 50.992C20.1871 52.1022 26.8835 51.8531 30.0054 51.8531C33.1272 51.8531 39.8143 52.1116 42.6348 50.992C43.5565 50.6283 44.3935 50.0791 45.0941 49.3785C45.7947 48.6779 46.3439 47.8408 46.7076 46.9192C47.8259 44.1067 47.5687 37.4036 47.5687 34.2857C47.5687 31.1679 47.8259 24.4741 46.7076 21.6522L46.7022 21.6509ZM30 45.2679C27.8279 45.2679 25.7047 44.6238 23.8986 43.417C22.0926 42.2103 20.685 40.4951 19.8538 38.4884C19.0226 36.4817 18.8051 34.2735 19.2289 32.1432C19.6526 30.0129 20.6986 28.056 22.2345 26.5202C23.7703 24.9843 25.7272 23.9383 27.8575 23.5146C29.9878 23.0908 32.196 23.3083 34.2027 24.1395C36.2094 24.9707 37.9246 26.3784 39.1313 28.1844C40.3381 29.9904 40.9821 32.1137 40.9821 34.2857C40.9839 35.7284 40.701 37.1573 40.1498 38.4905C39.5985 39.8237 38.7896 41.0351 37.7695 42.0552C36.7493 43.0753 35.538 43.8842 34.2048 44.4355C32.8716 44.9868 31.4427 45.2696 30 45.2679V45.2679ZM41.4348 25.4062C40.9278 25.4065 40.432 25.2564 40.0103 24.9749C39.5886 24.6934 39.2598 24.2931 39.0656 23.8248C38.8714 23.3564 38.8204 22.8409 38.9192 22.3436C39.0179 21.8462 39.262 21.3894 39.6204 21.0307C39.9789 20.6721 40.4356 20.4278 40.9329 20.3288C41.4302 20.2298 41.9457 20.2805 42.4141 20.4745C42.8826 20.6684 43.283 20.997 43.5648 21.4186C43.8465 21.8402 43.9969 22.3358 43.9969 22.8429C43.9983 23.1796 43.9332 23.5132 43.8054 23.8248C43.6775 24.1363 43.4894 24.4195 43.2519 24.6581C43.0144 24.8968 42.7321 25.0862 42.4212 25.2155C42.1103 25.3448 41.7769 25.4114 41.4402 25.4116L41.4348 25.4062ZM53.5714 4.28571H6.42857C4.72361 4.28571 3.08848 4.96301 1.88288 6.1686C0.677294 7.37419 0 9.00932 0 10.7143L0 57.8571C0 59.5621 0.677294 61.1972 1.88288 62.4028C3.08848 63.6084 4.72361 64.2857 6.42857 64.2857H53.5714C55.2764 64.2857 56.9115 63.6084 58.1171 62.4028C59.3227 61.1972 60 59.5621 60 57.8571V10.7143C60 9.00932 59.3227 7.37419 58.1171 6.1686C56.9115 4.96301 55.2764 4.28571 53.5714 4.28571V4.28571ZM51.2786 43.125C51.1058 46.5576 50.3223 49.5991 47.8165 52.0982C45.3107 54.5973 42.2719 55.3969 38.8433 55.5603C35.3062 55.7598 24.7018 55.7598 21.1647 55.5603C17.7321 55.3875 14.7013 54.6027 12.1915 52.0982C9.6817 49.5937 8.89286 46.5509 8.72946 43.125C8.52991 39.5866 8.52991 28.9808 8.72946 25.4464C8.90223 22.0138 9.67634 18.9723 12.1915 16.4732C14.7067 13.9741 17.7455 13.1839 21.1647 13.0205C24.7018 12.821 35.3062 12.821 38.8433 13.0205C42.2759 13.1933 45.3161 13.9781 47.8165 16.4826C50.317 18.9871 51.1152 22.0299 51.2786 25.4625C51.4781 28.9875 51.4781 39.5839 51.2786 43.125Z" fill="#252E39"/>
</g>
<defs>
<clipPath id="clip0_203_4">
<rect width="60" height="68.5714" fill="white"/>
</clipPath>
</defs>
</svg>
