<svg width="42" height="42" viewBox="0 0 42 42" fill="none" xmlns="http://www.w3.org/2000/svg">
<rect x="1" y="1" width="40" height="40" rx="6" fill="#1D3564"/>
<path d="M32.875 41H9.125C4.6375 41 1 37.3625 1 32.875V9.125C1 4.6375 4.6375 1 9.125 1H32.875C37.3625 1 41 4.6375 41 9.125V32.875C41 37.3625 37.3625 41 32.875 41Z" stroke="white" stroke-width="2" stroke-miterlimit="10"/>
<path d="M27.25 6.3125H14.75C10.0975 6.3125 6.31252 10.0975 6.31252 14.75V27.25C6.31252 31.9025 10.0975 35.6875 14.75 35.6875H27.25C31.9025 35.6875 35.6875 31.9025 35.6875 27.25V14.75C35.6875 10.0975 31.9025 6.3125 27.25 6.3125Z" stroke="white" stroke-width="2" stroke-miterlimit="10"/>
<path d="M21 28.1876C24.9695 28.1876 28.1875 24.9697 28.1875 21.0001C28.1875 17.0306 24.9695 13.8126 21 13.8126C17.0305 13.8126 13.8125 17.0306 13.8125 21.0001C13.8125 24.9697 17.0305 28.1876 21 28.1876Z" stroke="white" stroke-width="2" stroke-miterlimit="10"/>
<path d="M29.5 14C30.3284 14 31 13.3284 31 12.5C31 11.6716 30.3284 11 29.5 11C28.6716 11 28 11.6716 28 12.5C28 13.3284 28.6716 14 29.5 14Z" fill="white" stroke="white" stroke-miterlimit="10"/>
</svg>
