<svg width="60" height="60" viewBox="0 0 60 60" fill="none" xmlns="http://www.w3.org/2000/svg">
<g clip-path="url(#clip0_203_8)">
<path d="M32.8125 6.37228e-07C47.8242 6.37228e-07 60 12.1758 60 27.1875C60 28.7461 58.7461 30 57.1875 30C55.6289 30 54.375 28.7461 54.375 27.1875C54.375 15.2813 44.7187 5.625 32.8125 5.625C31.2539 5.625 30 4.37109 30 2.8125C30 1.25391 31.2539 6.37228e-07 32.8125 6.37228e-07ZM33.75 22.5C34.7446 22.5 35.6984 22.8951 36.4016 23.5984C37.1049 24.3016 37.5 25.2554 37.5 26.25C37.5 27.2446 37.1049 28.1984 36.4016 28.9017C35.6984 29.6049 34.7446 30 33.75 30C32.7554 30 31.8016 29.6049 31.0984 28.9017C30.3951 28.1984 30 27.2446 30 26.25C30 25.2554 30.3951 24.3016 31.0984 23.5984C31.8016 22.8951 32.7554 22.5 33.75 22.5V22.5ZM30 14.0625C30 12.5039 31.2539 11.25 32.8125 11.25C41.6133 11.25 48.75 18.3867 48.75 27.1875C48.75 28.7461 47.4961 30 45.9375 30C44.3789 30 43.125 28.7461 43.125 27.1875C43.125 21.4922 38.5078 16.875 32.8125 16.875C31.2539 16.875 30 15.6211 30 14.0625ZM13.7695 0.164063C16.043 -0.457031 18.4219 0.703126 19.3242 2.88281L24.0117 14.1328C24.8086 16.043 24.2578 18.2578 22.6523 19.5586L16.875 24.293C20.7773 32.543 27.457 39.2227 35.707 43.125L40.4297 37.3477C41.7422 35.7422 43.9453 35.1914 45.8555 35.9883L57.1055 40.6758C59.2852 41.5781 60.4453 43.957 59.8242 46.2305L57.0117 56.543C56.4609 58.582 54.6094 60 52.5 60C23.5078 60 0 36.4922 0 7.5C0 5.39063 1.41797 3.53906 3.45703 2.97656L13.7695 0.164063V0.164063Z" fill="#252E39"/>
</g>
<defs>
<clipPath id="clip0_203_8">
<rect width="60" height="60" fill="white"/>
</clipPath>
</defs>
</svg>
