<svg width="60" height="60" viewBox="0 0 60 60" fill="none" xmlns="http://www.w3.org/2000/svg">
<g clip-path="url(#clip0_802_6)">
<path d="M32.8125 -4.32318e-05C47.8242 -4.32318e-05 60 12.1757 60 27.1875C60 28.7461 58.7461 30 57.1875 30C55.6289 30 54.375 28.7461 54.375 27.1875C54.375 15.2812 44.7187 5.62496 32.8125 5.62496C31.2539 5.62496 30 4.37105 30 2.81246C30 1.25386 31.2539 -4.32318e-05 32.8125 -4.32318e-05ZM33.75 22.5C34.7446 22.5 35.6984 22.895 36.4016 23.5983C37.1049 24.3016 37.5 25.2554 37.5 26.25C37.5 27.2445 37.1049 28.1983 36.4016 28.9016C35.6984 29.6049 34.7446 30 33.75 30C32.7554 30 31.8016 29.6049 31.0984 28.9016C30.3951 28.1983 30 27.2445 30 26.25C30 25.2554 30.3951 24.3016 31.0984 23.5983C31.8016 22.895 32.7554 22.5 33.75 22.5V22.5ZM30 14.0625C30 12.5039 31.2539 11.25 32.8125 11.25C41.6133 11.25 48.75 18.3867 48.75 27.1875C48.75 28.7461 47.4961 30 45.9375 30C44.3789 30 43.125 28.7461 43.125 27.1875C43.125 21.4921 38.5078 16.875 32.8125 16.875C31.2539 16.875 30 15.6211 30 14.0625ZM13.7695 0.164019C16.043 -0.457075 18.4219 0.703082 19.3242 2.88277L24.0117 14.1328C24.8086 16.0429 24.2578 18.2578 22.6523 19.5586L16.875 24.2929C20.7773 32.5429 27.457 39.2226 35.707 43.125L40.4297 37.3476C41.7422 35.7421 43.9453 35.1914 45.8555 35.9882L57.1055 40.6757C59.2852 41.5781 60.4453 43.957 59.8242 46.2304L57.0117 56.5429C56.4609 58.582 54.6094 60 52.5 60C23.5078 60 0 36.4921 0 7.49996C0 5.39058 1.41797 3.53902 3.45703 2.97652L13.7695 0.164019V0.164019Z" fill="#DFA974"/>
</g>
<defs>
<clipPath id="clip0_802_6">
<rect width="60" height="60" fill="white"/>
</clipPath>
</defs>
</svg>
