<svg width="42" height="42" viewBox="0 0 42 42" fill="none" xmlns="http://www.w3.org/2000/svg">
<path d="M32 41H10C5.029 41 1 36.971 1 32V10C1 5.029 5.029 1 10 1H32C36.971 1 41 5.029 41 10V32C41 36.971 36.971 41 32 41Z" stroke="#DFA974" stroke-width="2" stroke-miterlimit="10"/>
<path d="M30.556 33.011C31.359 33.011 34.12 31.568 33.966 28.004C33.939 27.376 33.586 26.8 33.043 26.452C32.425 26.056 31.466 25.441 30.215 24.641C29.074 23.912 27.6 23.86 26.41 24.512L25.327 24.976C24.763 25.372 24.04 25.451 23.404 25.185C22.414 24.771 20.893 23.969 19.467 22.543C18.041 21.117 17.239 19.596 16.825 18.606C16.559 17.97 16.638 17.247 17.034 16.683L17.498 15.6C18.15 14.41 18.099 12.936 17.369 11.795C16.569 10.544 15.954 9.58504 15.558 8.96704C15.21 8.42404 14.634 8.07104 14.006 8.04404C10.442 7.89004 8.999 10.651 8.999 11.454C8.999 12.01 8.238 18.693 15.777 26.232C23.316 33.771 30 33.011 30.556 33.011Z" stroke="#DFA974" stroke-width="2" stroke-miterlimit="10"/>
</svg>
